<?xml version="1.0" encoding="utf-8"?>
<svg viewBox="-0.0066 191.5713 502.7185 122.2671" xmlns="http://www.w3.org/2000/svg">
  <path
    d="M 457.199 276.395 L 457.199 264.279 L 478.951 250.732 L 457.199 237.186 L 457.199 224.974 L 493.07 247.584 L 493.07 253.594 Z"
    style="fill: #eceff4; transform-origin: 475.135px 252.78px;" />
  <path
    d="M 71.442 278.167 Q 68.316 278.167 65.527 277.322 Q 62.739 276.477 60.542 274.83 Q 58.345 273.182 57.035 270.689 Q 55.725 268.196 55.725 264.816 Q 55.725 260.507 57.415 257.761 Q 59.105 255.014 62.021 253.578 Q 64.936 252.141 68.654 251.592 Q 72.372 251.043 76.428 251.043 L 85.131 251.043 Q 85.131 248.085 84.202 245.931 Q 83.272 243.776 81.287 242.508 Q 79.301 241.241 76.174 241.241 Q 74.146 241.241 72.414 241.706 Q 70.682 242.17 69.457 243.142 Q 68.231 244.114 67.724 245.635 L 57.162 245.635 Q 57.753 242.17 59.57 239.678 Q 61.387 237.185 64.049 235.579 Q 66.71 233.974 69.921 233.171 Q 73.132 232.368 76.428 232.368 Q 86.145 232.368 90.582 237.945 Q 95.018 243.522 95.018 253.578 L 95.018 277.576 L 85.892 277.576 L 85.638 271.83 Q 83.695 274.703 80.991 276.055 Q 78.287 277.407 75.752 277.787 Q 73.217 278.167 71.442 278.167 Z M 73.47 269.802 Q 76.85 269.802 79.47 268.534 Q 82.089 267.267 83.653 264.985 Q 85.216 262.704 85.216 259.746 L 85.216 258.31 L 77.104 258.31 Q 75.076 258.31 73.09 258.437 Q 71.104 258.563 69.499 259.113 Q 67.893 259.662 66.922 260.76 Q 65.95 261.859 65.95 263.887 Q 65.95 265.915 67.006 267.182 Q 68.062 268.45 69.795 269.126 Q 71.527 269.802 73.47 269.802 Z"
    style="fill: #eceff4;" />
  <path d="M 99.926 277.576 L 99.926 217.834 L 110.235 217.834 L 110.235 277.576 Z"
    style="fill: #eceff4;" />
  <path
    d="M 135.254 278.167 Q 128.325 278.167 123.466 275.294 Q 118.608 272.421 116.115 267.309 Q 113.622 262.197 113.622 255.437 Q 113.622 248.677 116.199 243.48 Q 118.777 238.283 123.635 235.326 Q 128.494 232.368 135.339 232.368 Q 140.409 232.368 144.211 234.185 Q 148.014 236.002 150.591 239.128 Q 153.168 242.255 154.436 246.226 Q 155.703 250.198 155.619 254.592 Q 155.534 255.606 155.45 256.578 Q 155.365 257.549 155.196 258.648 L 123.931 258.648 Q 124.185 261.605 125.494 264.056 Q 126.804 266.506 129.212 267.943 Q 131.621 269.379 135.254 269.379 Q 137.367 269.379 139.31 268.83 Q 141.254 268.281 142.732 267.182 Q 144.211 266.084 144.718 264.394 L 155.027 264.394 Q 153.929 269.21 150.971 272.252 Q 148.014 275.294 143.915 276.731 Q 139.817 278.167 135.254 278.167 Z M 124.1 250.958 L 145.563 250.958 Q 145.563 248.17 144.296 245.888 Q 143.028 243.607 140.704 242.297 Q 138.381 240.987 135.085 240.987 Q 131.536 240.987 129.17 242.424 Q 126.804 243.86 125.537 246.142 Q 124.269 248.423 124.1 250.958 Z"
    style="fill: #eceff4;" />
  <path
    d="M 153.765 277.576 L 169.482 254.845 L 154.61 233.044 L 166.609 233.044 L 176.242 248.001 L 185.622 233.044 L 197.367 233.044 L 182.495 255.099 L 198.466 277.576 L 186.382 277.576 L 175.82 262.197 L 165.257 277.576 Z"
    style="fill: #eceff4;" />
  <path
    d="M 199.244 277.576 L 199.244 233.044 L 209.553 233.044 L 209.553 277.576 Z M 204.398 227.89 Q 201.441 227.89 199.666 226.115 Q 197.892 224.341 197.892 221.468 Q 197.892 218.679 199.751 216.863 Q 201.61 215.046 204.398 215.046 Q 207.102 215.046 209.046 216.82 Q 210.989 218.595 210.989 221.468 Q 210.989 224.341 209.13 226.115 Q 207.271 227.89 204.398 227.89 Z"
    style="fill: #eceff4;" />
  <path
    d="M 231.699 278.167 Q 228.488 278.167 225.319 277.491 Q 222.151 276.815 219.362 275.252 Q 216.574 273.689 214.715 270.985 Q 212.856 268.281 212.264 264.225 L 222.658 264.225 Q 223.334 266.084 224.812 267.225 Q 226.291 268.365 228.277 268.915 Q 230.263 269.464 232.206 269.464 Q 233.389 269.464 234.783 269.295 Q 236.178 269.126 237.403 268.619 Q 238.628 268.112 239.389 267.14 Q 240.149 266.168 240.149 264.563 Q 240.149 263.042 239.304 262.155 Q 238.459 261.267 237.023 260.718 Q 235.586 260.169 233.558 259.831 Q 229.925 259.07 225.784 258.183 Q 221.644 257.296 218.602 255.352 Q 217.334 254.592 216.405 253.578 Q 215.475 252.564 214.841 251.339 Q 214.208 250.113 213.912 248.677 Q 213.616 247.24 213.616 245.55 Q 213.616 242.001 215.095 239.509 Q 216.574 237.016 219.066 235.453 Q 221.559 233.889 224.77 233.129 Q 227.981 232.368 231.361 232.368 Q 235.924 232.368 239.642 233.805 Q 243.36 235.241 245.853 238.199 Q 248.346 241.156 248.853 245.719 L 239.051 245.719 Q 238.628 243.607 236.473 242.339 Q 234.319 241.072 231.023 241.072 Q 229.84 241.072 228.573 241.283 Q 227.305 241.494 226.164 241.959 Q 225.024 242.424 224.305 243.353 Q 223.587 244.283 223.587 245.635 Q 223.587 246.902 224.221 247.832 Q 224.855 248.761 226.164 249.395 Q 227.474 250.029 229.249 250.451 Q 232.122 251.043 235.248 251.634 Q 238.375 252.226 240.656 252.817 Q 243.36 253.578 245.557 254.972 Q 247.754 256.366 248.979 258.606 Q 250.205 260.845 250.205 264.309 Q 250.205 268.365 248.557 271.069 Q 246.909 273.773 244.205 275.294 Q 241.501 276.815 238.206 277.491 Q 234.91 278.167 231.699 278.167 Z"
    style="fill: #eceff4;" />
  <path
    d="M 259.43 278.59 Q 256.726 278.59 254.825 276.815 Q 252.924 275.041 252.924 271.999 Q 252.924 268.957 254.867 267.14 Q 256.811 265.323 259.515 265.323 Q 262.219 265.323 264.078 267.14 Q 265.937 268.957 265.937 271.999 Q 265.937 275.041 264.078 276.815 Q 262.219 278.59 259.43 278.59 Z"
    style="fill: #eceff4;" />
  <path
    d="M 289.186 278.167 Q 282.426 278.167 278.032 275.083 Q 273.638 271.999 271.483 266.844 Q 269.329 261.69 269.329 255.352 Q 269.329 248.761 271.61 243.565 Q 273.892 238.368 278.455 235.368 Q 283.018 232.368 289.862 232.368 Q 292.397 232.368 294.805 232.918 Q 297.214 233.467 299.368 234.608 Q 301.523 235.748 302.96 237.607 L 302.96 217.834 L 313.269 217.834 L 313.269 277.576 L 303.298 277.576 L 303.129 271.999 Q 301.523 274.111 299.368 275.463 Q 297.214 276.815 294.594 277.491 Q 291.975 278.167 289.186 278.167 Z M 291.13 268.872 Q 295.186 268.872 297.805 266.971 Q 300.425 265.07 301.734 261.901 Q 303.044 258.732 303.044 255.183 Q 303.044 251.465 301.734 248.423 Q 300.425 245.381 297.805 243.522 Q 295.186 241.663 291.13 241.663 Q 286.82 241.663 284.327 243.607 Q 281.835 245.55 280.694 248.719 Q 279.553 251.888 279.553 255.521 Q 279.553 258.225 280.187 260.634 Q 280.821 263.042 282.173 264.901 Q 283.525 266.76 285.722 267.816 Q 287.919 268.872 291.13 268.872 Z"
    style="fill: #79b8ca;" />
  <path
    d="M 338.286 278.167 Q 331.357 278.167 326.498 275.294 Q 321.64 272.421 319.147 267.309 Q 316.654 262.197 316.654 255.437 Q 316.654 248.677 319.231 243.48 Q 321.809 238.283 326.667 235.326 Q 331.526 232.368 338.371 232.368 Q 343.441 232.368 347.243 234.185 Q 351.046 236.002 353.623 239.128 Q 356.2 242.255 357.468 246.226 Q 358.735 250.198 358.651 254.592 Q 358.566 255.606 358.482 256.578 Q 358.397 257.549 358.228 258.648 L 326.963 258.648 Q 327.217 261.605 328.526 264.056 Q 329.836 266.506 332.244 267.943 Q 334.653 269.379 338.286 269.379 Q 340.399 269.379 342.342 268.83 Q 344.286 268.281 345.764 267.182 Q 347.243 266.084 347.75 264.394 L 358.059 264.394 Q 356.961 269.21 354.003 272.252 Q 351.046 275.294 346.947 276.731 Q 342.849 278.167 338.286 278.167 Z M 327.132 250.958 L 348.595 250.958 Q 348.595 248.17 347.328 245.888 Q 346.06 243.607 343.736 242.297 Q 341.413 240.987 338.117 240.987 Q 334.568 240.987 332.202 242.424 Q 329.836 243.86 328.569 246.142 Q 327.301 248.423 327.132 250.958 Z"
    style="fill: #79b8ca;" />
  <path
    d="M 373.274 277.576 L 357.134 233.044 L 368.542 233.044 L 380.287 268.788 L 391.948 233.044 L 403.271 233.044 L 387.132 277.576 Z"
    style="fill: #79b8ca;" />
  <path d="M 417.197 282.954 L 438.937 219.947 L 450.613 219.947 L 428.805 282.954 Z"
    style="fill: #eceff4;" />
  <path
    d="M -45.506 -229.014 L -45.506 -241.13 L -23.754 -254.677 L -45.506 -268.223 L -45.506 -280.435 L -9.635 -257.825 L -9.635 -251.815 Z"
    transform="matrix(-1, 0, 0, -1, 55.116224, 505.438736)"
    style="fill: #eceff4; transform-origin: -27.558px -252.719px;" />
</svg>