<?xml version="1.0" encoding="UTF-8" standalone="no"?>
<svg
   viewBox="-0.0066 191.5713 928.71899 110.267"
   version="1.1"
   id="svg13"
   sodipodi:docname="alexisdev-logo.svg"
   inkscape:version="1.3.2 (091e20e, 2023-11-25, custom)"
   inkscape:export-filename="C:\Users\Alexi\OneDrive\Escritorio\Proyectos\sanmiguel.dev\logo.svg"
   inkscape:export-xdpi="96"
   inkscape:export-ydpi="96"
   xmlns:inkscape="http://www.inkscape.org/namespaces/inkscape"
   xmlns:sodipodi="http://sodipodi.sourceforge.net/DTD/sodipodi-0.dtd"
   xmlns="http://www.w3.org/2000/svg"
   xmlns:svg="http://www.w3.org/2000/svg">
  <defs
     id="defs13">
    <rect
       x="64.958717"
       y="53.661549"
       width="136.84979"
       height="45.702179"
       id="rect15" />
    <rect
       x="65.215469"
       y="28.24292"
       width="156.61983"
       height="50.837257"
       id="rect14" />
    <rect
       x="87.809807"
       y="65.728981"
       width="79.336929"
       height="11.040414"
       id="rect13" />
  </defs>
  <sodipodi:namedview
     id="namedview13"
     pagecolor="#505050"
     bordercolor="#eeeeee"
     borderopacity="1"
     inkscape:showpageshadow="0"
     inkscape:pageopacity="0"
     inkscape:pagecheckerboard="0"
     inkscape:deskcolor="#505050"
     inkscape:export-bgcolor="#00000000"
     inkscape:zoom="1.9473907"
     inkscape:cx="473.7108"
     inkscape:cy="231.33519"
     inkscape:window-width="3840"
     inkscape:window-height="2126"
     inkscape:window-x="1609"
     inkscape:window-y="-11"
     inkscape:window-maximized="1"
     inkscape:current-layer="text16" />
  <text
     xml:space="preserve"
     transform="translate(-0.0066,191.5713)"
     id="text13"
     style="font-size:7.99997px;line-height:0;font-family:sans-serif;-inkscape-font-specification:'sans-serif, Normal';white-space:pre;shape-inside:url(#rect13);display:inline;fill:#000000;fill-opacity:0.996078" />
  <text
     xml:space="preserve"
     transform="translate(-0.0066,191.5713)"
     id="text14"
     style="font-size:7.99997px;line-height:0;font-family:sans-serif;-inkscape-font-specification:'sans-serif, Normal';white-space:pre;shape-inside:url(#rect14);display:inline;fill:#000000;fill-opacity:0.996078" />
  <text
     xml:space="preserve"
     transform="translate(-0.0066,191.5713)"
     id="text15"
     style="font-size:7.99997px;line-height:0;font-family:sans-serif;-inkscape-font-specification:'sans-serif, Normal';white-space:pre;shape-inside:url(#rect15);display:inline;fill:#000000;fill-opacity:0.996078" />
  <g
     id="g17"
     transform="matrix(0.94880193,0,0,0.94880193,-1.5214262,18.189489)"
     inkscape:export-filename="g17.svg"
     inkscape:export-xdpi="96"
     inkscape:export-ydpi="96">
    <path
       d="m 869.68962,270.97445 v -13.69706 l 26.32392,-15.31482 -26.32392,-15.31368 v -13.80561 l 43.41051,25.56046 v 6.79431 z"
       style="fill:#eceff4;fill-opacity:1;stroke-width:1.16966"
       id="path1-0-6" />
    <path
       d="M 47.114891,271.43368 V 257.73662 L 20.790976,242.4218 47.114891,227.10812 V 213.30251 L 3.7043884,238.86297 v 6.79431 z"
       style="fill:#eceff4;fill-opacity:1;stroke-width:1.16966"
       id="path1-0-6-4" />
    <path
       d="m 818.90093,282.08795 28.18153,-85.79933 h 15.13559 l -28.26967,85.79933 z"
       style="fill:#eceff4;stroke-width:1.32862"
       id="path12" />
    <g
       id="text16"
       style="font-size:112.69px;line-height:0;-inkscape-font-specification:'sans-serif, Normal';fill:#eceff4;stroke-width:14.6987"
       aria-label="sanmiguel.dev"
       transform="translate(4.215843)">
      <path
         style="font-weight:bold;font-family:Inter;-inkscape-font-specification:'Inter, Bold';stroke-width:13.6914"
         d="m 110.17379,228.36843 -14.537422,0.8946 q -0.37275,-1.86377 -1.60284,-3.35479 -1.23009,-1.52828 -3.24296,-2.4229 -1.9756,-0.93188 -4.73398,-0.93188 -3.69027,0 -6.225,1.56557 -2.53473,1.52829 -2.53473,4.1003 0,2.05014 1.64012,3.46661 1.64012,1.41647 5.62859,2.2738 l 10.36257,2.08742 q 8.349692,1.71468 12.450002,5.51677 4.10029,3.80209 4.10029,9.98982 0,5.62859 -3.31751,9.87799 -3.28024,4.2494 -9.020662,6.63503 -5.70313,2.34835 -13.15822,2.34835 -11.36901,0 -18.11587,-4.73398 -6.709573,-4.77126 -7.865112,-12.97186 l 15.618402,-0.82006 q 0.70824,3.46662 3.42934,5.29312 2.72111,1.78921 6.97051,1.78921 4.17485,0 6.70958,-1.60284 2.572,-1.64011 2.60928,-4.21212 -0.0373,-2.16198 -1.8265,-3.54116 -1.78922,-1.41647 -5.51676,-2.16198 l -9.91527,-1.9756 q -8.38697,-1.67739 -12.48727,-5.81496 -4.063019,-4.13758 -4.063019,-10.54896 0,-5.51676 2.982039,-9.50523 3.01931,-3.98848 8.46152,-6.15045 5.47949,-2.16198 12.82275,-2.16198 10.84715,0 17.072152,4.58489 6.26227,4.58487 7.30598,12.48727 z m 27.65845,42.00941 q -5.47949,0 -9.76617,-1.90105 -4.28667,-1.93832 -6.78412,-5.70313 -2.46018,-3.80211 -2.46018,-9.46796 0,-4.77127 1.75194,-8.01422 1.75195,-3.24297 4.77126,-5.21857 3.01931,-1.9756 6.85868,-2.98203 3.87664,-1.00644 8.12604,-1.41647 4.99491,-0.52185 8.0515,-0.96916 3.05658,-0.48458 4.43577,-1.41647 1.3792,-0.93188 1.3792,-2.75837 v -0.22366 q 0,-3.54117 -2.23653,-5.47949 -2.19925,-1.93832 -6.26227,-1.93832 -4.28668,0 -6.82141,1.90104 -2.53473,1.86378 -3.35479,4.69671 l -14.68652,-1.19281 q 1.11826,-5.21857 4.3985,-9.02066 3.28024,-3.83937 8.46152,-5.88952 5.21857,-2.08743 12.07725,-2.08743 4.77125,0 9.13248,1.11827 4.3985,1.11826 7.79057,3.46662 3.42933,2.34835 5.40493,6.03861 1.9756,3.65299 1.9756,8.75974 v 38.61734 h -15.05928 v -7.93966 h -0.4473 q -1.37919,2.68383 -3.69027,4.73398 -2.31107,2.01287 -5.55404,3.16841 -3.24296,1.11826 -7.49236,1.11826 z m 4.5476,-10.95897 q 3.50389,0 6.18773,-1.3792 2.68383,-1.41646 4.21211,-3.80209 1.5283,-2.38563 1.5283,-5.40494 v -6.0759 q -0.74551,0.48458 -2.05014,0.89462 -1.26737,0.37275 -2.87021,0.70822 -1.60285,0.29822 -3.20569,0.55914 -1.60285,0.22366 -2.90748,0.41003 -2.79567,0.41003 -4.88309,1.30464 -2.08742,0.89461 -3.24296,2.4229 -1.15555,1.49102 -1.15555,3.72755 0,3.24296 2.34836,4.95763 2.38563,1.6774 6.03862,1.6774 z m 55.91313,-23.2226 v 33.10058 h -15.87934 v -57.25506 h 15.13383 v 10.10164 h 0.67095 q 1.90106,-4.99491 6.37411,-7.90239 4.47305,-2.94477 10.84715,-2.94477 5.96407,0 10.39984,2.60929 4.43578,2.60928 6.89596,7.45509 2.46018,4.80853 2.46018,11.48083 v 36.45537 h -15.87934 v -33.62244 q 0.0373,-5.25584 -2.68382,-8.20059 -2.72111,-2.98204 -7.49237,-2.98204 -3.20569,0 -5.66586,1.3792 -2.42291,1.37918 -3.8021,4.02574 -1.34191,2.60928 -1.37919,6.29955 z m 49.38988,33.10058 v -57.25506 h 15.13383 v 10.10164 h 0.67095 q 1.78922,-5.03219 5.96407,-7.93967 4.17485,-2.90749 9.98982,-2.90749 5.88951,0 10.02709,2.94477 4.13758,2.90748 5.51676,7.90239 h 0.59641 q 1.75194,-4.92036 6.33682,-7.86512 4.62216,-2.98204 10.92171,-2.98204 8.01422,0 13.00912,5.10675 5.03218,5.06945 5.03218,14.38831 v 38.50552 h -15.84205 v -35.37439 q 0,-4.77125 -2.53473,-7.15688 -2.53473,-2.38562 -6.33683,-2.38562 -4.32395,0 -6.74685,2.75838 -2.4229,2.72111 -2.4229,7.19416 v 34.96435 h -15.39476 v -35.70986 q 0,-4.21212 -2.4229,-6.70958 -2.38563,-2.49745 -6.29955,-2.49745 -2.64656,0 -4.77125,1.34191 -2.08742,1.30464 -3.31752,3.69027 -1.23009,2.34835 -1.23009,5.51676 v 34.36795 z m 95.72332,0 v -57.25506 h 15.87933 v 57.25506 z m 8.01422,-64.6356 q -3.54117,0 -6.0759,-2.34836 -2.53473,-2.38562 -2.53473,-5.70313 0,-3.28024 2.53473,-5.62859 2.53473,-2.38563 6.03863,-2.38563 3.57843,0 6.07589,2.38563 2.53473,2.34835 2.53473,5.62859 0,3.31751 -2.53473,5.70313 -2.49746,2.34836 -6.03862,2.34836 z m 46.33333,86.92631 q -7.71601,0 -13.23278,-2.08742 -5.47948,-2.08743 -8.72245,-5.62859 -3.24296,-3.54117 -4.21212,-7.86512 l 14.68652,-1.97559 q 0.67095,1.56556 2.12469,2.94475 1.45375,1.41647 3.83937,2.31108 2.42291,0.89461 5.88953,0.89461 5.18128,0 8.53607,-2.46017 3.39206,-2.46019 3.39206,-8.08878 v -10.4744 h -0.67095 q -1.04372,2.38563 -3.13114,4.51033 -2.08742,2.1247 -5.36766,3.46662 -3.28024,1.34191 -7.82785,1.34191 -6.44865,0 -11.74176,-2.98203 -5.25583,-3.01931 -8.38696,-9.20703 -3.09387,-6.225 -3.09387,-15.73024 0,-9.72888 3.16841,-16.25209 3.16841,-6.5232 8.42425,-9.76616 5.29311,-3.24297 11.59266,-3.24297 4.80854,0 8.05149,1.64013 3.24297,1.60284 5.21857,4.02574 2.01287,2.38563 3.09386,4.69671 h 0.59641 v -9.61706 h 15.76751 v 57.8142 q 0,7.15688 -3.57845,11.96541 -3.57844,4.84581 -9.91526,7.30598 -6.29955,2.46018 -14.50015,2.46018 z m 0.33548,-35.03891 q 3.83937,0 6.48593,-1.90105 2.68383,-1.93832 4.10029,-5.51675 1.45375,-3.61573 1.45375,-8.6479 0,-5.03219 -1.41647,-8.72246 -1.41646,-3.72754 -4.1003,-5.77769 -2.68383,-2.05015 -6.5232,-2.05015 -3.91392,0 -6.59775,2.1247 -2.68383,2.08742 -4.06303,5.81497 -1.37918,3.72754 -1.37918,8.61063 0,4.95763 1.37918,8.57334 1.41647,3.57845 4.06303,5.55405 2.68383,1.93831 6.59775,1.93831 z m 77.04829,-11.62993 v -32.87693 h 15.87933 v 57.25506 h -15.24565 v -10.39984 h -0.59641 q -1.93832,5.03218 -6.44865,8.08876 -4.47305,3.05659 -10.9217,3.05659 -5.74041,0 -10.10164,-2.60927 -4.36123,-2.60929 -6.8214,-7.41782 -2.42291,-4.80853 -2.46018,-11.51811 v -36.45537 h 15.87933 v 33.62244 q 0.0373,5.06946 2.72111,8.01421 2.68383,2.94477 7.19415,2.94477 2.87021,0 5.36767,-1.30465 2.49745,-1.34191 4.02575,-3.95119 1.56556,-2.60928 1.52829,-6.44865 z m 54.64571,25.4964 q -8.83428,0 -15.20837,-3.57845 -6.33683,-3.61571 -9.76617,-10.21346 -3.42934,-6.63503 -3.42934,-15.69296 0,-8.83428 3.42934,-15.50659 3.42934,-6.67229 9.65434,-10.39984 6.26228,-3.72755 14.68652,-3.72755 5.66587,0 10.54894,1.8265 4.92037,1.78923 8.57336,5.40494 3.69027,3.61572 5.74041,9.09521 2.05015,5.44221 2.05015,12.74819 v 4.36123 h -48.34623 v -9.84072 h 33.39879 q 0,-3.42933 -1.49102,-6.07589 -1.49102,-2.64655 -4.13757,-4.13757 -2.60929,-1.52829 -6.0759,-1.52829 -3.61572,0 -6.41138,1.67739 -2.75837,1.64012 -4.32395,4.43577 -1.56557,2.75839 -1.60284,6.15045 v 9.35614 q 0,4.24939 1.56557,7.34326 1.60285,3.09386 4.51033,4.77125 2.90748,1.6774 6.89596,1.6774 2.64655,0 4.84579,-0.74551 2.19926,-0.74551 3.76483,-2.23653 1.56556,-1.49101 2.38562,-3.65299 l 14.68653,0.96916 q -1.11826,5.29311 -4.58488,9.24431 -3.42934,3.91392 -8.87156,6.11318 -5.40494,2.16197 -12.48727,2.16197 z m 52.52106,-77.45835 v 76.34008 h -15.87934 v -76.34008 z m 21.9552,77.30924 q -3.69027,0 -6.33683,-2.60928 -2.60928,-2.64655 -2.60928,-6.33682 0,-3.65299 2.60928,-6.26227 2.64656,-2.60928 6.33683,-2.60928 3.57844,0 6.26227,2.60928 2.68383,2.60928 2.68383,6.26227 0,2.46018 -1.26736,4.51033 -1.23009,2.01287 -3.24297,3.24296 -2.01287,1.19281 -4.43577,1.19281 z"
         id="path19" />
      <path
         style="font-weight:bold;font-family:Inter;-inkscape-font-specification:'Inter, Bold';fill:#4299e1;stroke-width:13.6914"
         d="m 647.3125,270.22874 q -6.5232,0 -11.81631,-3.35479 -5.25584,-3.39207 -8.3497,-9.95254 -3.05658,-6.59776 -3.05658,-16.17754 0,-9.84072 3.16841,-16.36391 3.16841,-6.56048 8.42424,-9.80344 5.29312,-3.28025 11.59266,-3.28025 4.80853,0 8.01422,1.64013 3.24296,1.60284 5.21857,4.02574 2.01286,2.38563 3.05658,4.69671 h 0.48458 v -28.70208 h 15.84206 v 76.34008 h -15.65568 v -9.16976 h -0.67096 q -1.11826,2.38563 -3.16841,4.73399 -2.01288,2.31107 -5.25584,3.83937 -3.20569,1.52829 -7.82784,1.52829 z m 5.03219,-12.63637 q 3.83937,0 6.48592,-2.08743 2.68383,-2.1247 4.1003,-5.92679 1.45374,-3.80209 1.45374,-8.90883 0,-5.10674 -1.41647,-8.87155 -1.41647,-3.76482 -4.1003,-5.81497 -2.68382,-2.05015 -6.52319,-2.05015 -3.91393,0 -6.59776,2.1247 -2.68383,2.1247 -4.06302,5.88952 -1.37919,3.76481 -1.37919,8.72245 0,4.99491 1.37919,8.83427 1.41646,3.80211 4.06302,5.96408 2.68383,2.1247 6.59776,2.1247 z m 66.64844,12.82275 q -8.83427,0 -15.20838,-3.57845 -6.33682,-3.61571 -9.76616,-10.21346 -3.42934,-6.63503 -3.42934,-15.69296 0,-8.83428 3.42934,-15.50659 3.42934,-6.67229 9.65434,-10.39984 6.26227,-3.72755 14.68652,-3.72755 5.66586,0 10.54895,1.8265 4.92035,1.78923 8.57334,5.40494 3.69027,3.61572 5.74043,9.09521 2.05014,5.44221 2.05014,12.74819 v 4.36123 h -48.34624 v -9.84072 h 33.39879 q 0,-3.42933 -1.49102,-6.07589 -1.49101,-2.64655 -4.13757,-4.13757 -2.60928,-1.52829 -6.07589,-1.52829 -3.61572,0 -6.41138,1.67739 -2.75838,1.64012 -4.32395,4.43577 -1.56556,2.75839 -1.60284,6.15045 v 9.35614 q 0,4.24939 1.56557,7.34326 1.60284,3.09386 4.51032,4.77125 2.90749,1.6774 6.89596,1.6774 2.64656,0 4.84581,-0.74551 2.19925,-0.74551 3.76481,-2.23653 1.56558,-1.49101 2.38564,-3.65299 l 14.68651,0.96916 q -1.11826,5.29311 -4.58487,9.24431 -3.42934,3.91392 -8.87156,6.11318 -5.40493,2.16197 -12.48727,2.16197 z m 88.4173,-58.37333 -20.0169,57.25506 h -17.89222 l -20.0169,-57.25506 h 16.77394 l 11.89086,40.9657 h 0.59642 l 11.85358,-40.9657 z"
         id="path20" />
    </g>
  </g>
</svg>
