<svg version="1.2" xmlns="http://www.w3.org/2000/svg" viewBox="0 0 1000 1000" width="1000"
	height="1000">
	<title>favicon</title>
	<style>
		.s0 {
		fill: #0c151d
		}

		.s1 {
		fill: #79b8ca
		}
	</style>
	<path id="Forma 1" class="s0"
		d="m500 1000c-276.5 0-500-223.5-500-500 0-276.5 223.5-500 500-500 276.5 0 500 223.5 500 500 0 276.5-223.5 500-500 500z" />
	<path id="&lt;/&gt;" class="s1" aria-label="&lt;/&gt;"
		d="m337.1 588v55.3l-261-116.5v-40l260.9-116.7v55.8l-215.5 91.6v-20.9zm103.9 149.2h-52.2l170.5-474.7h51.5zm437.1-220l-215.5-91.4-0.1-55.9 261.1 116.5v39.9l-260.9 116.8-0.1-55.2 215.5-91.6z" />
</svg>