<?xml version="1.0" encoding="UTF-8" standalone="no"?>
<svg
   viewBox="-0.0066 191.5713 265606.25 7357.9054"
   version="1.1"
   id="svg13"
   sodipodi:docname="alexisdev-logo.svg"
   width="265606.25"
   height="7357.9053"
   xmlns:inkscape="http://www.inkscape.org/namespaces/inkscape"
   xmlns:sodipodi="http://sodipodi.sourceforge.net/DTD/sodipodi-0.dtd"
   xmlns="http://www.w3.org/2000/svg"
   xmlns:svg="http://www.w3.org/2000/svg">
  <defs
     id="defs13">
    <rect
       x="64.958717"
       y="53.661549"
       width="136.84979"
       height="45.702179"
       id="rect15" />
    <rect
       x="65.215469"
       y="28.24292"
       width="156.61983"
       height="50.837257"
       id="rect14" />
    <rect
       x="87.809807"
       y="65.728981"
       width="79.336929"
       height="11.040414"
       id="rect13" />
  </defs>
  <sodipodi:namedview
     id="namedview13"
     pagecolor="#505050"
     bordercolor="#eeeeee"
     borderopacity="1"
     inkscape:showpageshadow="0"
     inkscape:pageopacity="0"
     inkscape:pagecheckerboard="0"
     inkscape:deskcolor="#505050"
     inkscape:export-bgcolor="#ffffff00" />
  <path
     d="m 5130.471,-3574.7406 q -3.126,0 -5.915,-0.845 -2.788,-0.845 -4.985,-2.492 -2.197,-1.648 -3.507,-4.141 -1.31,-2.493 -1.31,-5.873 0,-4.309 1.69,-7.055 1.69,-2.747 4.606,-4.183 2.915,-1.437 6.633,-1.986 3.718,-0.549 7.774,-0.549 h 8.703 q 0,-2.958 -0.929,-5.112 -0.93,-2.155 -2.915,-3.423 -1.986,-1.267 -5.113,-1.267 -2.028,0 -3.76,0.465 -1.732,0.464 -2.957,1.436 -1.226,0.972 -1.733,2.493 h -10.562 q 0.591,-3.465 2.408,-5.957 1.817,-2.493 4.479,-4.099 2.661,-1.605 5.872,-2.408 3.211,-0.803 6.507,-0.803 9.717,0 14.154,5.577 4.436,5.577 4.436,15.633 v 23.998 h -9.126 l -0.254,-5.746 q -1.943,2.873 -4.647,4.225 -2.704,1.352 -5.239,1.732 -2.535,0.38 -4.31,0.38 z m 2.028,-8.365 q 3.38,0 6,-1.268 2.619,-1.267 4.183,-3.549 1.563,-2.281 1.563,-5.239 v -1.436 h -8.112 q -2.028,0 -4.014,0.127 -1.986,0.126 -3.591,0.676 -1.606,0.549 -2.577,1.647 -0.972,1.099 -0.972,3.127 0,2.028 1.056,3.295 1.056,1.268 2.789,1.944 1.732,0.676 3.675,0.676 z"
     style="fill:#eceff4"
     id="path2" />
  <path
     d="m 5158.955,-3575.3316 v -59.742 h 10.309 v 59.742 z"
     style="fill:#eceff4"
     id="path3" />
  <path
     d="m 5194.283,-3574.7406 q -6.929,0 -11.788,-2.873 -4.858,-2.873 -7.351,-7.985 -2.493,-5.112 -2.493,-11.872 0,-6.76 2.577,-11.957 2.578,-5.197 7.436,-8.154 4.859,-2.958 11.704,-2.958 5.07,0 8.872,1.817 3.803,1.817 6.38,4.943 2.577,3.127 3.845,7.098 1.267,3.972 1.183,8.366 -0.085,1.014 -0.169,1.986 -0.085,0.971 -0.254,2.07 h -31.265 q 0.254,2.957 1.563,5.408 1.31,2.45 3.718,3.887 2.409,1.436 6.042,1.436 2.113,0 4.056,-0.549 1.944,-0.549 3.422,-1.648 1.479,-1.098 1.986,-2.788 h 10.309 q -1.098,4.816 -4.056,7.858 -2.957,3.042 -7.056,4.479 -4.098,1.436 -8.661,1.436 z m -11.154,-27.209 h 21.463 q 0,-2.788 -1.267,-5.07 -1.268,-2.281 -3.592,-3.591 -2.323,-1.31 -5.619,-1.31 -3.549,0 -5.915,1.437 -2.366,1.436 -3.633,3.718 -1.268,2.281 -1.437,4.816 z"
     style="fill:#eceff4"
     id="path4" />
  <path
     d="m 5212.794,-3575.3316 15.717,-22.731 -14.872,-21.801 h 11.999 l 9.633,14.957 9.38,-14.957 h 11.745 l -14.872,22.055 15.971,22.477 h -12.084 l -10.562,-15.379 -10.563,15.379 z"
     style="fill:#eceff4"
     id="path5" />
  <path
     d="m 5258.273,-3575.3316 v -44.532 h 10.309 v 44.532 z m 5.154,-49.686 q -2.957,0 -4.732,-1.775 -1.774,-1.774 -1.774,-4.647 0,-2.789 1.859,-4.605 1.859,-1.817 4.647,-1.817 2.704,0 4.648,1.774 1.943,1.775 1.943,4.648 0,2.873 -1.859,4.647 -1.859,1.775 -4.732,1.775 z"
     style="fill:#eceff4"
     id="path6" />
  <path
     d="m 5290.728,-3574.7406 q -3.211,0 -6.38,-0.676 -3.168,-0.676 -5.957,-2.239 -2.788,-1.563 -4.647,-4.267 -1.859,-2.704 -2.451,-6.76 h 10.394 q 0.676,1.859 2.154,3 1.479,1.14 3.465,1.69 1.986,0.549 3.929,0.549 1.183,0 2.577,-0.169 1.395,-0.169 2.62,-0.676 1.225,-0.507 1.986,-1.479 0.76,-0.972 0.76,-2.577 0,-1.521 -0.845,-2.408 -0.845,-0.888 -2.281,-1.437 -1.437,-0.549 -3.465,-0.887 -3.633,-0.761 -7.774,-1.648 -4.14,-0.887 -7.182,-2.831 -1.268,-0.76 -2.197,-1.774 -0.93,-1.014 -1.564,-2.239 -0.633,-1.226 -0.929,-2.662 -0.296,-1.437 -0.296,-3.127 0,-3.549 1.479,-6.041 1.479,-2.493 3.971,-4.056 2.493,-1.564 5.704,-2.324 3.211,-0.761 6.591,-0.761 4.563,0 8.281,1.437 3.718,1.436 6.211,4.394 2.493,2.957 3,7.52 h -9.802 q -0.423,-2.112 -2.578,-3.38 -2.154,-1.267 -5.45,-1.267 -1.183,0 -2.45,0.211 -1.268,0.211 -2.409,0.676 -1.14,0.465 -1.859,1.394 -0.718,0.93 -0.718,2.282 0,1.267 0.634,2.197 0.634,0.929 1.943,1.563 1.31,0.634 3.085,1.056 2.873,0.592 5.999,1.183 3.127,0.592 5.408,1.183 2.704,0.761 4.901,2.155 2.197,1.394 3.422,3.634 1.226,2.239 1.226,5.703 0,4.056 -1.648,6.76 -1.648,2.704 -4.352,4.225 -2.704,1.521 -5.999,2.197 -3.296,0.676 -6.507,0.676 z"
     style="fill:#eceff4"
     id="path7" />
  <path
     d="m 5318.459,-3574.3176 q -2.704,0 -4.605,-1.775 -1.901,-1.774 -1.901,-4.816 0,-3.042 1.943,-4.859 1.944,-1.817 4.648,-1.817 2.704,0 4.563,1.817 1.859,1.817 1.859,4.859 0,3.042 -1.859,4.816 -1.859,1.775 -4.648,1.775 z"
     style="fill:#eceff4"
     id="path8" />
  <path
     d="m 5348.215,-3574.7406 q -6.76,0 -11.154,-3.084 -4.394,-3.084 -6.549,-8.239 -2.154,-5.154 -2.154,-11.492 0,-6.591 2.281,-11.787 2.282,-5.197 6.845,-8.197 4.563,-3 11.407,-3 2.535,0 4.943,0.55 2.409,0.549 4.563,1.69 2.155,1.14 3.592,2.999 v -19.773 h 10.309 v 59.742 h -9.971 l -0.169,-5.577 q -1.606,2.112 -3.761,3.464 -2.154,1.352 -4.774,2.028 -2.619,0.676 -5.408,0.676 z m 1.944,-9.295 q 4.056,0 6.675,-1.901 2.62,-1.901 3.929,-5.07 1.31,-3.169 1.31,-6.718 0,-3.718 -1.31,-6.76 -1.309,-3.042 -3.929,-4.901 -2.619,-1.859 -6.675,-1.859 -4.31,0 -6.803,1.944 -2.492,1.943 -3.633,5.112 -1.141,3.169 -1.141,6.802 0,2.704 0.634,5.113 0.634,2.408 1.986,4.267 1.352,1.859 3.549,2.915 2.197,1.056 5.408,1.056 z"
     style="fill:#4299e1"
     id="path9" />
  <path
     d="m 5397.315,-3574.7406 q -6.929,0 -11.788,-2.873 -4.858,-2.873 -7.351,-7.985 -2.493,-5.112 -2.493,-11.872 0,-6.76 2.577,-11.957 2.578,-5.197 7.436,-8.154 4.859,-2.958 11.704,-2.958 5.07,0 8.872,1.817 3.803,1.817 6.38,4.943 2.577,3.127 3.845,7.098 1.267,3.972 1.183,8.366 -0.085,1.014 -0.169,1.986 -0.085,0.971 -0.254,2.07 h -31.265 q 0.254,2.957 1.563,5.408 1.31,2.45 3.718,3.887 2.409,1.436 6.042,1.436 2.113,0 4.056,-0.549 1.944,-0.549 3.422,-1.648 1.479,-1.098 1.986,-2.788 h 10.309 q -1.098,4.816 -4.056,7.858 -2.957,3.042 -7.056,4.479 -4.098,1.436 -8.661,1.436 z m -11.154,-27.209 h 21.463 q 0,-2.788 -1.267,-5.07 -1.268,-2.281 -3.592,-3.591 -2.323,-1.31 -5.619,-1.31 -3.549,0 -5.915,1.437 -2.366,1.436 -3.633,3.718 -1.268,2.281 -1.437,4.816 z"
     style="fill:#4299e1"
     id="path10" />
  <path
     d="m 5432.303,-3575.3316 -16.14,-44.532 h 11.408 l 11.745,35.744 11.661,-35.744 h 11.323 l -16.139,44.532 z"
     style="fill:#4299e1"
     id="path11" />
  <path
     d="m 5161.7053,-3228.3455 v 12.116 l -21.752,13.547 21.752,13.546 v 12.212 l -35.871,-22.61 v -6.01 z"
     style="fill:#eceff4"
     id="path13" />
  <text
     xml:space="preserve"
     transform="translate(5061.0765,-3771.227)"
     id="text13"
     style="font-size:7.99997px;line-height:0;font-family:sans-serif;-inkscape-font-specification:'sans-serif, Normal';white-space:pre;shape-inside:url(#rect13);fill:#000000;fill-opacity:0.996078" />
  <text
     xml:space="preserve"
     transform="translate(5061.0765,-3771.227)"
     id="text14"
     style="font-size:7.99997px;line-height:0;font-family:sans-serif;-inkscape-font-specification:'sans-serif, Normal';white-space:pre;shape-inside:url(#rect14);fill:#000000;fill-opacity:0.996078" />
  <text
     xml:space="preserve"
     transform="translate(5061.0765,-3771.227)"
     id="text15"
     style="font-size:7.99997px;line-height:0;font-family:sans-serif;-inkscape-font-specification:'sans-serif, Normal';white-space:pre;shape-inside:url(#rect15);fill:#000000;fill-opacity:0.996078" />
  <g
     id="g17"
     transform="translate(5049.0156,-3958.6902)">
    <path
       d="m 30.3333,266.2101 v -7.45484 L 13.14812,250.41993 30.3333,242.08522 V 234.5713 L 1.9934,248.48298 v 3.69791 z"
       style="fill:#eceff4;stroke-width:0.697216"
       id="path1-0"
       inkscape:export-filename="C:\Users\Alexi\Downloads\ttt.svg"
       inkscape:export-xdpi="96"
       inkscape:export-ydpi="96" />
    <path
       d="m 501.9934,266.18308 v -7.45484 l 17.18518,-8.33533 -17.18518,-8.33471 v -7.51392 l 28.3399,13.91168 v 3.69791 z"
       style="fill:#ffffff;fill-opacity:1;stroke-width:0.697216"
       id="path1-0-6" />
    <path
       d="m 474.35086,272.23178 15.33824,-46.69763 h 8.23778 l -15.38621,46.69763 z"
       style="fill:#eceff4;stroke-width:0.723122"
       id="path12" />
    <text
       xml:space="preserve"
       style="font-size:61.3333px;line-height:0;font-family:sans-serif;-inkscape-font-specification:'sans-serif, Normal';fill:#4299e1;fill-opacity:1;stroke-width:8"
       x="35.176743"
       y="267.02856"
       id="text16"><tspan
         sodipodi:role="line"
         id="tspan16"
         x="35.176743"
         y="267.02856"
         style="font-style:normal;font-variant:normal;font-weight:bold;font-stretch:normal;font-size:61.3333px;font-family:Inter;-inkscape-font-specification:'Inter, Bold';font-variant-ligatures:normal;font-variant-caps:normal;font-variant-numeric:normal;font-variant-east-asian:normal;fill:#4299e1;fill-opacity:1;stroke-width:8"><tspan
   style="font-size:61.3333px;fill:#ffffff"
   id="tspan17">sanmiguel.</tspan>dev</tspan></text>
  </g>
</svg>
