<?xml version="1.0" encoding="UTF-8" standalone="no"?>
<svg
   viewBox="-0.0066 191.5713 928.71899 110.267"
   version="1.1"
   id="svg13"
   width="928.71899"
   height="110.267"
   xmlns="http://www.w3.org/2000/svg"
   xmlns:svg="http://www.w3.org/2000/svg">
  <defs
     id="defs13" />
  <g
     id="g17"
     transform="matrix(0.94880193,0,0,0.94880193,-1.5214262,18.189489)">
    <path
       d="M 55.788595,271.02409 V 257.32703 L 24.213611,242.01221 55.788595,226.69853 V 212.89292 L 3.7186203,238.45338 v 6.79431 z"
       style="fill:#eceff4;stroke-width:1.28102"
       id="path1-0" />
    <path
       d="m 922.38762,270.97445 v -13.69706 l 31.57498,-15.31482 -31.57498,-15.31368 v -13.80561 l 52.06998,25.56046 v 6.79431 z"
       style="fill:#eceff4;fill-opacity:1;stroke-width:1.28102"
       id="path1-0-6" />
    <path
       d="m 871.59893,282.08795 28.18153,-85.79933 h 15.13559 l -28.26967,85.79933 z"
       style="fill:#eceff4;stroke-width:1.32862"
       id="path12" />
    <g
       id="text16"
       style="font-size:112.69px;line-height:0;-inkscape-font-specification:'sans-serif, Normal';fill:#eceff4;stroke-width:14.6987"
       aria-label="sanmiguel.dev">
      <path
         style="font-weight:bold;font-family:Inter;-inkscape-font-specification:'Inter, Bold'"
         d="m 122.63335,228.5884 -15.60693,0.96042 q -0.40017,-2.00089 -1.72076,-3.6016 -1.32059,-1.64072 -3.48154,-2.60115 -2.120946,-1.00044 -5.08226,-1.00044 -3.961758,0 -6.682965,1.68074 -2.721207,1.64073 -2.721207,4.40196 0,2.20097 1.760781,3.72165 1.760781,1.52067 6.042681,2.44108 l 11.12494,2.24099 q 8.96397,1.84082 13.36593,5.92263 4.40195,4.08181 4.40195,10.72476 0,6.04268 -3.56158,10.60471 -3.52156,4.56202 -9.6843,7.12316 -6.12271,2.52112 -14.126265,2.52112 -12.205416,0 -19.44863,-5.08226 -7.203196,-5.12227 -8.443747,-13.92618 l 16.76744,-0.88039 q 0.760338,3.72165 3.681634,5.68252 2.921296,1.92085 7.483321,1.92085 4.481987,0 7.203197,-1.72076 2.76122,-1.76078 2.80124,-4.52201 -0.04,-2.32103 -1.96087,-3.80168 -1.92085,-1.52068 -5.922626,-2.32103 L 88.17806,246.95655 q -9.003995,-1.8008 -13.405948,-6.24277 -4.361935,-4.44197 -4.361935,-11.32503 0,-5.92263 3.20142,-10.20453 3.241438,-4.2819 9.084031,-6.60293 5.88261,-2.32103 13.766108,-2.32103 11.645164,0 18.328134,4.92219 6.72298,4.92218 7.84348,13.40595 z m 29.69325,45.10001 q -5.88261,0 -10.48465,-2.04091 -4.60204,-2.08092 -7.28323,-6.12271 -2.64117,-4.08182 -2.64117,-10.16451 0,-5.12228 1.88083,-8.60382 1.88084,-3.48155 5.12228,-5.60249 3.24143,-2.12094 7.36326,-3.20142 4.16185,-1.08048 8.72387,-1.52067 5.36238,-0.56025 8.64384,-1.04047 3.28145,-0.52023 4.76211,-1.52067 1.48066,-1.00044 1.48066,-2.96131 v -0.24011 q 0,-3.80169 -2.40107,-5.88261 -2.36104,-2.08092 -6.72298,-2.08092 -4.60204,0 -7.32325,2.0409 -2.72121,2.00089 -3.6016,5.04224 l -15.76699,-1.28057 q 1.20053,-5.60249 4.72209,-9.6843 3.52156,-4.12183 9.08403,-6.3228 5.60249,-2.241 12.96576,-2.241 5.12227,0 9.80435,1.20054 4.72209,1.20053 8.36371,3.72165 3.68163,2.52112 5.80257,6.48287 2.12094,3.92174 2.12094,9.40418 v 41.45839 h -16.16717 v -8.52378 h -0.48021 q -1.48066,2.88128 -3.96176,5.08226 -2.4811,2.16095 -5.96265,3.40151 -3.48154,1.20053 -8.04357,1.20053 z m 4.88217,-11.76522 q 3.76167,0 6.64295,-1.48066 2.88128,-1.52067 4.522,-4.08181 1.64073,-2.56114 1.64073,-5.80258 v -6.52289 q -0.80035,0.52023 -2.20097,0.96043 -1.36061,0.40017 -3.08137,0.76033 -1.72077,0.32015 -3.44153,0.60027 -1.72076,0.24011 -3.12138,0.4402 -3.00134,0.44019 -5.24233,1.40062 -2.24099,0.96042 -3.48154,2.60115 -1.24056,1.60071 -1.24056,4.00178 0,3.48154 2.52112,5.32236 2.56114,1.8008 6.48288,1.8008 z m 60.02661,-24.93106 v 35.53576 h -17.04757 v -61.46727 h 16.24721 v 10.84481 h 0.72032 q 2.04091,-5.36238 6.84304,-8.48376 4.80213,-3.16141 11.64517,-3.16141 6.40284,0 11.16495,2.80125 4.76211,2.80124 7.40329,8.00355 2.64117,5.16229 2.64117,12.32547 v 39.13736 h -17.04757 v -36.09601 q 0.04,-5.64251 -2.88127,-8.80391 -2.9213,-3.20142 -8.04357,-3.20142 -3.44153,0 -6.0827,1.48066 -2.60116,1.48065 -4.08181,4.32191 -1.44064,2.80125 -1.48066,6.76301 z m 53.02345,35.53576 v -61.46727 h 16.24721 v 10.84481 h 0.72032 q 1.92085,-5.4024 6.40284,-8.52378 4.48199,-3.12139 10.72476,-3.12139 6.3228,0 10.76477,3.16141 4.44198,3.12138 5.92263,8.48376 h 0.64029 q 1.88083,-5.28234 6.80301,-8.44375 4.96221,-3.20142 11.72521,-3.20142 8.60382,0 13.96619,5.48244 5.4024,5.44241 5.4024,15.44685 v 41.33834 h -17.00754 v -37.97685 q 0,-5.12227 -2.72121,-7.68341 -2.72121,-2.56113 -6.80302,-2.56113 -4.64206,0 -7.24321,2.96131 -2.60116,2.9213 -2.60116,7.72343 v 37.53665 h -16.52733 v -38.33701 q 0,-4.522 -2.60116,-7.20319 -2.56113,-2.68119 -6.763,-2.68119 -2.84126,0 -5.12227,1.44064 -2.24099,1.40062 -3.56158,3.96175 -1.32059,2.52112 -1.32059,5.92263 v 36.89637 z m 102.76561,0 V 211.06062 H 390.072 v 61.46727 z m 8.60382,-69.39079 q -3.80169,0 -6.5229,-2.52112 -2.72121,-2.56113 -2.72121,-6.12271 0,-3.52156 2.72121,-6.04268 2.72121,-2.56114 6.48288,-2.56114 3.8417,0 6.52289,2.56114 2.72121,2.52112 2.72121,6.04268 0,3.56158 -2.72121,6.12271 -2.68119,2.52112 -6.48287,2.52112 z m 49.74203,93.32141 q -8.28367,0 -14.2063,-2.24099 -5.88261,-2.241 -9.36416,-6.04268 -3.48154,-3.80169 -4.522,-8.44375 l 15.76699,-2.12094 q 0.72032,1.68074 2.28101,3.1614 1.5607,1.52068 4.12183,2.4811 2.60116,0.96043 6.32281,0.96043 5.56247,0 9.16406,-2.64117 3.64162,-2.64118 3.64162,-8.68386 v -11.24499 h -0.72032 q -1.1205,2.56114 -3.36149,4.84215 -2.24099,2.28101 -5.76256,3.72165 -3.52156,1.44064 -8.40373,1.44064 -6.92307,0 -12.60559,-3.20142 -5.6425,-3.24144 -9.00399,-9.88438 -3.32148,-6.68297 -3.32148,-16.8875 0,-10.44463 3.40151,-17.44774 3.40151,-7.00311 9.04401,-10.48465 5.68252,-3.48155 12.44553,-3.48155 5.16229,0 8.64383,1.76079 3.48155,1.72076 5.60249,4.32191 2.16096,2.56114 3.32147,5.04224 h 0.64029 v -10.32458 h 16.92751 v 62.06754 q 0,7.68341 -3.84171,12.8457 -3.8417,5.20231 -10.64472,7.84348 -6.763,2.64117 -15.56691,2.64117 z m 0.36016,-37.61669 q 4.12183,0 6.96309,-2.04091 2.88128,-2.08092 4.40195,-5.92262 1.5607,-3.88173 1.5607,-9.28412 0,-5.4024 -1.52068,-9.36416 -1.52067,-4.00177 -4.40195,-6.20275 -2.88128,-2.20098 -7.00311,-2.20098 -4.20186,0 -7.08314,2.28102 -2.88128,2.24099 -4.36194,6.24277 -1.48065,4.00177 -1.48065,9.2441 0,5.32236 1.48065,9.20408 1.52068,3.84171 4.36194,5.96265 2.88128,2.08092 7.08314,2.08092 z m 82.71667,-12.48554 v -35.29566 h 17.04756 v 61.46727 h -16.36726 v -11.16495 h -0.64029 q -2.08092,5.4024 -6.92307,8.68385 -4.80213,3.28146 -11.7252,3.28146 -6.16273,0 -10.84481,-2.80124 -4.68208,-2.80125 -7.32325,-7.96354 -2.60116,-5.16229 -2.64117,-12.36549 v -39.13736 h 17.04756 v 36.09602 q 0.04,5.44241 2.9213,8.60381 2.88128,3.16141 7.72342,3.16141 3.08137,0 5.76256,-1.40063 2.68119,-1.44063 4.32192,-4.24188 1.68074,-2.80124 1.64073,-6.92307 z m 58.66595,27.37215 q -9.48421,0 -16.32724,-3.84171 -6.80302,-3.88172 -10.48466,-10.96486 -3.68163,-7.12316 -3.68163,-16.84748 0,-9.48421 3.68163,-16.64739 3.68164,-7.16317 10.3646,-11.16495 6.72299,-4.00178 15.767,-4.00178 6.0827,0 11.32502,1.96087 5.28235,1.92086 9.20409,5.80258 3.96176,3.88172 6.16273,9.76433 2.20098,5.84259 2.20098,13.68607 v 4.68208 H 549.42256 V 235.5915 h 35.85591 q 0,-3.68163 -1.60071,-6.52289 -1.60071,-2.84126 -4.44197,-4.44197 -2.80125,-1.64073 -6.5229,-1.64073 -3.88172,0 -6.88305,1.8008 -2.96131,1.76078 -4.64206,4.76211 -1.68075,2.96132 -1.72076,6.60293 v 10.04446 q 0,4.56202 1.68074,7.8835 1.72077,3.32147 4.84215,5.12227 3.12139,1.8008 7.40329,1.8008 2.84126,0 5.2023,-0.80036 2.36105,-0.80035 4.0418,-2.40106 1.68074,-1.60071 2.56113,-3.92174 l 15.767,1.04046 q -1.20053,5.68252 -4.92218,9.9244 -3.68164,4.20187 -9.52423,6.56292 -5.80258,2.32103 -13.40595,2.32103 z m 56.38499,-83.1569 v 81.95636 h -17.04757 v -81.95636 z m 23.57042,82.99682 q -3.96176,0 -6.80302,-2.80124 -2.80124,-2.84126 -2.80124,-6.80302 0,-3.92174 2.80124,-6.72298 2.84126,-2.80124 6.80302,-2.80124 3.84171,0 6.72298,2.80124 2.88128,2.80124 2.88128,6.72298 0,2.64118 -1.3606,4.84215 -1.32059,2.16096 -3.48155,3.48155 -2.16096,1.28056 -4.76211,1.28056 z"
         id="path19" />
      <path
         style="font-weight:bold;font-family:Inter;-inkscape-font-specification:'Inter, Bold';fill:#4299e1"
         d="m 699.2889,273.52834 q -7.00311,0 -12.68563,-3.6016 -5.6425,-3.64162 -8.96398,-10.68474 -3.28145,-7.08315 -3.28145,-17.36771 0,-10.56469 3.40151,-17.56779 3.40151,-7.04313 9.04401,-10.52467 5.68252,-3.52157 12.44552,-3.52157 5.16229,0 8.60382,1.76079 3.48154,1.72076 5.60249,4.32191 2.16095,2.56114 3.28145,5.04224 h 0.52023 v -30.81367 h 17.00755 v 81.95636 h -16.80746 v -9.84437 h -0.72032 q -1.20053,2.56114 -3.40151,5.08226 -2.16096,2.4811 -5.6425,4.12183 -3.44153,1.64073 -8.40373,1.64073 z m 5.4024,-13.56602 q 4.12183,0 6.96309,-2.241 2.88127,-2.28101 4.40195,-6.36282 1.56069,-4.08181 1.56069,-9.56424 0,-5.48244 -1.52067,-9.52423 -1.52068,-4.04179 -4.40196,-6.24277 -2.88127,-2.20098 -7.0031,-2.20098 -4.20187,0 -7.08315,2.28102 -2.88127,2.28101 -4.36193,6.3228 -1.48066,4.04179 -1.48066,9.36416 0,5.36238 1.48066,9.4842 1.52067,4.08182 4.36193,6.40285 2.88128,2.28101 7.08315,2.28101 z m 71.55171,13.76611 q -9.4842,0 -16.32724,-3.84171 -6.80302,-3.88172 -10.48465,-10.96486 -3.68164,-7.12316 -3.68164,-16.84748 0,-9.48421 3.68164,-16.64739 3.68163,-7.16317 10.3646,-11.16495 6.72298,-4.00178 15.76699,-4.00178 6.0827,0 11.32503,1.96087 5.28234,1.92086 9.20408,5.80258 3.96176,3.88172 6.16274,9.76433 2.20097,5.84259 2.20097,13.68607 v 4.68208 H 752.5525 V 235.5915 h 35.85591 q 0,-3.68163 -1.60071,-6.52289 -1.60071,-2.84126 -4.44197,-4.44197 -2.80124,-1.64073 -6.52289,-1.64073 -3.88173,0 -6.88306,1.8008 -2.96131,1.76078 -4.64206,4.76211 -1.68074,2.96132 -1.72076,6.60293 v 10.04446 q 0,4.56202 1.68075,7.8835 1.72076,3.32147 4.84214,5.12227 3.12139,1.8008 7.40329,1.8008 2.84126,0 5.20231,-0.80036 2.36105,-0.80035 4.04179,-2.40106 1.68075,-1.60071 2.56114,-3.92174 l 15.76699,1.04046 q -1.20053,5.68252 -4.92218,9.9244 -3.68163,4.20187 -9.52423,6.56292 -5.80257,2.32103 -13.40595,2.32103 z m 94.92209,-62.66781 -21.48953,61.46727 h -19.20853 l -21.48953,-61.46727 h 18.00799 l 12.76566,43.97951 h 0.64029 l 12.72564,-43.97951 z"
         id="path20" />
    </g>
  </g>
</svg>
